<svg width="335" height="201" viewBox="0 0 335 201" fill="none" xmlns="http://www.w3.org/2000/svg">
    <g clip-path="url(#clip0_809_204)">
        <path
            d="M0.738281 6.9121C0.738281 3.5984 3.42457 0.912109 6.73828 0.912109H328.738C332.052 0.912109 334.738 3.5984 334.738 6.91211V200.912H0.738281V6.9121Z"
            fill="#EEEEEE" />
        <path
            d="M78.53 43.0711L-45.9646 186.164L-13.7728 275.709H395.313L402.446 251.349L264.696 111.28C255.486 101.914 240.49 101.593 230.888 110.555C215.323 125.082 190.339 121.624 179.304 103.416L146.255 48.8815C131.479 24.4997 97.2431 21.5624 78.53 43.0711Z"
            fill="#B9B9B9" />
        <circle cx="235.317" cy="46.1929" r="26.2143" fill="#B9B9B9" />
    </g>
    <defs>
        <clipPath id="clip0_809_204">
            <path
                d="M0.738281 6.9121C0.738281 3.5984 3.42457 0.912109 6.73828 0.912109H328.738C332.052 0.912109 334.738 3.5984 334.738 6.91211V200.912H0.738281V6.9121Z"
                fill="white" />
        </clipPath>
    </defs>
</svg>
    