<svg width="41" height="41" viewBox="0 0 41 41" fill="none" xmlns="http://www.w3.org/2000/svg">
    <g clip-path="url(#clip0_1530_278)">
        <rect x="0.86719" y="0.729492" width="40" height="40" rx="20" fill="#EFEFEF" />
        <path fill-rule="evenodd" clip-rule="evenodd"
            d="M15.7267 27.3602C14.6174 26.6332 13.2159 26.2631 12.0649 26.9222C6.72639 29.9793 3.12939 35.732 3.12939 42.3247C3.12939 52.1205 11.0707 60.0617 20.8664 60.0617C30.662 60.0617 38.6034 52.1205 38.6034 42.3247C38.6034 35.732 35.0064 29.9793 29.6678 26.9222C28.5168 26.2631 27.1154 26.6332 26.006 27.3602C24.5295 28.3279 22.7639 28.8906 20.8664 28.8906C18.9689 28.8906 17.2033 28.3279 15.7267 27.3602Z"
            fill="#AAAAAA" />
        <path
            d="M30.2555 17.6074C30.2555 22.7931 26.0516 26.997 20.8659 26.997C15.6801 26.997 11.4762 22.7931 11.4762 17.6074C11.4762 12.4217 15.6801 8.21777 20.8659 8.21777C26.0516 8.21777 30.2555 12.4217 30.2555 17.6074Z"
            fill="#AAAAAA" />
    </g>
    <rect x="1.22555" y="1.08786" width="39.2833" height="39.2833" rx="19.6416" stroke="#C5C5C5"
        stroke-width="0.716727" />
    <defs>
        <clipPath id="clip0_1530_278">
            <rect x="0.86719" y="0.729492" width="40" height="40" rx="20" fill="white" />
        </clipPath>
    </defs>
</svg>
    